<?xml version="1.0" encoding="utf-8"?>
<!-- Generator: Adobe Illustrator 21.0.2, SVG Export Plug-In . SVG Version: 6.00 Build 0)  -->
<svg version="1.1" id="Layer_1" xmlns="http://www.w3.org/2000/svg" xmlns:xlink="http://www.w3.org/1999/xlink" x="0px" y="0px"
	 viewBox="0 0 250 250" style="enable-background:new 0 0 250 250;" xml:space="preserve">
<style type="text/css">
	.st0{fill:#FFFFFF;}
</style>
<g>
	<path class="st0" d="M79.6,224.4c92.3,0,142.8-76.5,142.8-142.8c0-2.2,0-4.3-0.1-6.5c9.8-7.1,18.3-15.9,25-26
		c-9,4-18.7,6.7-28.8,7.9c10.4-6.2,18.3-16,22.1-27.8c-9.7,5.7-20.4,9.9-31.9,12.2c-9.2-9.8-22.2-15.9-36.6-15.9
		c-27.7,0-50.2,22.5-50.2,50.2c0,3.9,0.4,7.8,1.3,11.4C81.4,85.1,44.5,65.2,19.7,34.8c-4.3,7.4-6.8,16-6.8,25.2
		c0,17.4,8.9,32.8,22.3,41.8c-8.2-0.3-16-2.5-22.7-6.3c0,0.2,0,0.4,0,0.6c0,24.3,17.3,44.6,40.3,49.2c-4.2,1.1-8.7,1.8-13.2,1.8
		c-3.2,0-6.4-0.3-9.4-0.9c6.4,19.9,24.9,34.5,46.9,34.9c-17.2,13.5-38.8,21.5-62.3,21.5c-4,0-8-0.2-12-0.7
		C24.9,216.1,51.3,224.4,79.6,224.4"/>
</g>
</svg>
