<?xml version="1.0" encoding="utf-8"?>
<!-- Generator: Adobe Illustrator 21.0.2, SVG Export Plug-In . SVG Version: 6.00 Build 0)  -->
<svg version="1.1" id="Layer_1" xmlns="http://www.w3.org/2000/svg" xmlns:xlink="http://www.w3.org/1999/xlink" x="0px" y="0px"
	 viewBox="0 0 250 250" style="enable-background:new 0 0 250 250;" xml:space="preserve">
<style type="text/css">
	.st0{fill:#FFFFFF;}
</style>
<g>
	<path class="st0" d="M125,23.8c33,0,36.9,0.1,49.9,0.7c12,0.5,18.6,2.6,22.9,4.3c5.8,2.2,9.9,4.9,14.2,9.2c4.3,4.3,7,8.4,9.2,14.2
		c1.7,4.4,3.7,10.9,4.3,22.9c0.6,13,0.7,16.9,0.7,49.9s-0.1,36.9-0.7,49.9c-0.5,12-2.6,18.6-4.3,22.9c-2.2,5.8-4.9,9.9-9.2,14.2
		c-4.3,4.3-8.4,7-14.2,9.2c-4.4,1.7-10.9,3.7-22.9,4.3c-13,0.6-16.9,0.7-49.9,0.7s-36.9-0.1-49.9-0.7c-12-0.5-18.6-2.6-22.9-4.3
		c-5.8-2.2-9.9-4.9-14.2-9.2c-4.3-4.3-7-8.4-9.2-14.2c-1.7-4.4-3.7-10.9-4.3-22.9c-0.6-13-0.7-16.9-0.7-49.9s0.1-36.9,0.7-49.9
		c0.5-12,2.6-18.6,4.3-22.9C31,46.4,33.6,42.3,38,38c4.3-4.3,8.4-7,14.2-9.2c4.4-1.7,10.9-3.7,22.9-4.3C88.1,23.9,92,23.8,125,23.8
		 M125,1.5c-33.5,0-37.7,0.1-50.9,0.7C60.9,2.8,52,4.9,44.1,8c-8.1,3.2-15,7.4-21.9,14.2C15.4,29.1,11.1,36,8,44.1
		c-3.1,7.9-5.1,16.8-5.7,30C1.6,87.3,1.5,91.5,1.5,125c0,33.5,0.1,37.7,0.7,50.9c0.6,13.1,2.7,22.1,5.7,30c3.2,8.1,7.4,15,14.2,21.9
		c6.9,6.9,13.8,11.1,21.9,14.2c7.9,3.1,16.8,5.1,30,5.7c13.2,0.6,17.4,0.7,50.9,0.7s37.7-0.1,50.9-0.7c13.1-0.6,22.1-2.7,30-5.7
		c8.1-3.2,15-7.4,21.9-14.2c6.9-6.9,11.1-13.8,14.2-21.9c3.1-7.9,5.1-16.8,5.7-30c0.6-13.2,0.7-17.4,0.7-50.9s-0.1-37.7-0.7-50.9
		c-0.6-13.1-2.7-22.1-5.7-30c-3.2-8.1-7.4-15-14.2-21.9C220.9,15.4,214,11.1,205.9,8c-7.9-3.1-16.8-5.1-30-5.7
		C162.7,1.6,158.5,1.5,125,1.5L125,1.5z"/>
	<path class="st0" d="M125,61.6C90,61.6,61.6,90,61.6,125S90,188.4,125,188.4s63.4-28.4,63.4-63.4S160,61.6,125,61.6z M125,166.2
		c-22.7,0-41.2-18.4-41.2-41.2c0-22.7,18.4-41.2,41.2-41.2c22.7,0,41.2,18.4,41.2,41.2C166.2,147.7,147.7,166.2,125,166.2z"/>
	<circle class="st0" cx="190.9" cy="59.1" r="14.8"/>
</g>
</svg>
