<?xml version="1.0" encoding="utf-8"?>
<!-- Generator: Adobe Illustrator 21.0.2, SVG Export Plug-In . SVG Version: 6.00 Build 0)  -->
<svg version="1.1" id="Layer_1" xmlns="http://www.w3.org/2000/svg" xmlns:xlink="http://www.w3.org/1999/xlink" x="0px" y="0px"
	 viewBox="0 0 250 250" style="enable-background:new 0 0 250 250;" xml:space="preserve">
<style type="text/css">
	.st0{fill:#FFFFFF;}
</style>
<g>
	<g>
		<path class="st0" d="M80.4,242c6.1-10,15.3-26.4,18.7-39.4c1.8-7,9.4-35.8,9.4-35.8c4.9,9.4,19.2,17.3,34.5,17.3
			c45.4,0,78.1-41.7,78.1-93.6c0-49.7-40.6-86.9-92.8-86.9c-64.9,0-99.4,43.6-99.4,91.1c0,22.1,11.7,49.5,30.5,58.3
			c2.9,1.3,4.4,0.7,5-2c0.5-2.1,3-12.3,4.2-17.1c0.4-1.5,0.2-2.8-1-4.3c-6.2-7.5-11.2-21.4-11.2-34.3c0-33.2,25.1-65.3,67.9-65.3
			c37,0,62.9,25.2,62.9,61.2c0,40.7-20.6,68.9-47.3,68.9c-14.8,0-25.8-12.2-22.3-27.2c4.2-17.9,12.5-37.2,12.5-50.1
			c0-11.6-6.2-21.2-19-21.2c-15.1,0-27.2,15.6-27.2,36.5c0,13.3,4.5,22.3,4.5,22.3s-14.9,63-17.6,74.8c-3,13-1.8,31.3-0.5,43.2
			C71.2,245.5,75.2,250.3,80.4,242z"/>
	</g>
</g>
</svg>
